<svg xmlns="http://www.w3.org/2000/svg" viewBox="0 0 140 140" fill="none">
  <!-- Original Convex Logo (placed lower) -->
  <g transform="translate(-22, -22)">
    <path d="M108.092 130.021C126.258 128.003 143.385 118.323 152.815 102.167C148.349 142.128 104.653 167.385 68.9858 151.878C65.6992 150.453 62.8702 148.082 60.9288 145.034C52.9134 132.448 50.2786 116.433 54.0644 101.899C64.881 120.567 86.8748 132.01 108.092 130.021Z" fill="#F3B01C"/>
    <path d="M53.4012 90.1735C46.0375 107.191 45.7186 127.114 54.7463 143.51C22.9759 119.608 23.3226 68.4578 54.358 44.7949C57.2286 42.6078 60.64 41.3097 64.2178 41.1121C78.9312 40.336 93.8804 46.0225 104.364 56.6193C83.0637 56.831 62.318 70.4756 53.4012 90.1735Z" fill="#8D2676"/>
    <path d="M114.637 61.8552C103.89 46.8701 87.0686 36.6684 68.6387 36.358C104.264 20.1876 148.085 46.4045 152.856 85.1654C153.3 88.7635 152.717 92.4322 151.122 95.6775C144.466 109.195 132.124 119.679 117.702 123.559C128.269 103.96 126.965 80.0151 114.637 61.8552Z" fill="#EE342F"/>
  </g>
  
  <!-- Chess Knight on Top (transformed and scaled) -->
  <g transform="translate(30, 100) scale(0.5)">
    <path d="M 50.40625 0 C 50.40625 -4.894531 51.003906 -9.394531 52.203125 -13.5 C 53.398438 -17.601563 54.75 -20.703125 56.25 -22.796875 C 57.050781 -23.898438 58.273438 -25.375 59.921875 -27.21875 C 61.578125 -29.070313 63.753906 -31.347656 66.453125 -34.046875 C 69.648438 -37.242188 71.921875 -39.867188 73.265625 -41.921875 C 74.617188 -43.972656 75.296875 -46.050781 75.296875 -48.15625 C 75.296875 -49.15625 75.195313 -50.050781 75 -50.84375 L 74.40625 -50.84375 C 74.300781 -50.050781 73.570313 -48.90625 72.21875 -47.40625 C 70.875 -45.90625 69.203125 -44.851563 67.203125 -44.25 C 66.203125 -43.945313 64.875 -43.671875 63.21875 -43.421875 C 61.570313 -43.171875 59.597656 -42.945313 57.296875 -42.75 C 56.097656 -41.945313 54.820313 -40.84375 53.46875 -39.4375 C 52.125 -38.039063 50.703125 -36.34375 49.203125 -34.34375 C 46.203125 -30.445313 43.5 -28.5 41.09375 -28.5 C 38.5 -28.5 36.375 -28.796875 34.71875 -29.390625 C 33.070313 -29.992188 31.75 -31.097656 30.75 -32.703125 L 24 -43.34375 C 24.695313 -44.644531 25.421875 -46.296875 26.171875 -48.296875 C 26.921875 -50.296875 27.75 -52.546875 28.65625 -55.046875 C 29.550781 -57.648438 30.472656 -59.875 31.421875 -61.71875 C 32.367188 -63.570313 33.242188 -65 34.046875 -66 C 35.742188 -68.195313 37.195313 -71.445313 38.40625 -75.75 C 39.195313 -78.644531 39.96875 -81.019531 40.71875 -82.875 C 41.46875 -84.726563 42.539063 -86.351563 43.9375 -87.75 C 45.34375 -89.144531 47.445313 -90.59375 50.25 -92.09375 C 51.144531 -95 51.59375 -98.050781 51.59375 -101.25 C 51.59375 -102.851563 51.492188 -104.425781 51.296875 -105.96875 C 51.097656 -107.519531 50.800781 -109.097656 50.40625 -110.703125 L 54 -110.703125 C 59.300781 -108.703125 62.5 -105.203125 63.59375 -100.203125 L 64.5 -100.203125 C 64.894531 -101.097656 65.191406 -102.59375 65.390625 -104.6875 C 65.597656 -106.789063 65.703125 -108.546875 65.703125 -109.953125 C 65.703125 -110.847656 65.675781 -111.742188 65.625 -112.640625 C 65.570313 -113.546875 65.5 -114.347656 65.40625 -115.046875 L 70.65625 -115.046875 C 73.65625 -113.453125 76.050781 -111.003906 77.84375 -107.703125 C 79.644531 -104.398438 80.546875 -100.847656 80.546875 -97.046875 C 86.742188 -95.347656 92.617188 -92.195313 98.171875 -87.59375 C 103.722656 -83 108.570313 -77.148438 112.71875 -70.046875 C 116.875 -62.953125 119.898438 -54.800781 121.796875 -45.59375 C 123.203125 -38.695313 124.253906 -31.570313 124.953125 -24.21875 C 125.648438 -16.875 126 -9.25 126 -1.34375 L 126 0 Z M 105.90625 -10.046875 L 115.796875 -10.046875 C 115.796875 -17.847656 115.367188 -25.445313 114.515625 -32.84375 C 113.671875 -40.25 112.347656 -47.050781 110.546875 -53.25 C 108.742188 -59.445313 106.34375 -64.644531 103.34375 -68.84375 C 101.144531 -72.050781 98.894531 -74.851563 96.59375 -77.25 C 94.300781 -79.644531 91.953125 -81.59375 89.546875 -83.09375 L 88.203125 -82.203125 C 92.398438 -78.703125 95.875 -74.828125 98.625 -70.578125 C 101.375 -66.328125 103.445313 -61 104.84375 -54.59375 C 106.25 -48.195313 106.953125 -39.898438 106.953125 -29.703125 C 106.953125 -26.003906 106.875 -22.503906 106.71875 -19.203125 C 106.570313 -15.898438 106.300781 -12.847656 105.90625 -10.046875 Z M 53.703125 -74.09375 C 55.003906 -74.09375 56.253906 -74.59375 57.453125 -75.59375 C 58.648438 -76.59375 59.898438 -77.09375 61.203125 -77.09375 L 62.40625 -76.953125 L 62.40625 -78.296875 L 58.203125 -79.5 C 57.597656 -79.695313 56.96875 -79.84375 56.3125 -79.9375 C 55.664063 -80.039063 55.046875 -80.09375 54.453125 -80.09375 C 52.847656 -80.09375 51.519531 -79.789063 50.46875 -79.1875 C 49.425781 -78.59375 48.90625 -77.75 48.90625 -76.65625 L 48.90625 -75.59375 L 49.046875 -75 C 49.847656 -74.394531 51.398438 -74.09375 53.703125 -74.09375 Z M 38.703125 -41.84375 C 39.003906 -43.25 39.703125 -44.875 40.796875 -46.71875 C 41.898438 -48.570313 43.453125 -50.195313 45.453125 -51.59375 L 44.84375 -52.34375 C 42.050781 -52.25 39.78125 -51.523438 38.03125 -50.171875 C 36.28125 -48.828125 35.15625 -47.15625 34.65625 -45.15625 C 35.050781 -44.351563 35.671875 -43.625 36.515625 -42.96875 C 37.367188 -42.320313 38.097656 -41.945313 38.703125 -41.84375 Z" fill="black"/>
  </g>
</svg>